# TOMAGI State64 orbit: rho theta phi
# source_sha256 f456d0da681ae03ddb40cdc1c4566411b25a24e48d8ab279a9bc94d75a6f9cbd
# program_sha256 349e51a5a402b3295d653ad08f00b55d465ffab7e943fb437d196af948487e3e
# trace_sha256 0f63d46cdee734e7785ff2ab78cd551d757e186272d2dcfe72ea6bbe0ac3f6d3
v 191 78 121
v 193 81 121
v 194 83 121
v 196 86 121
v 198 90 122
v 200 94 122
v 202 98 123
v 205 102 125
v 207 107 126
v 210 112 128
v 213 117 130
v 217 122 132
v 220 128 134
v 224 135 137
v 227 141 140
v 231 148 143
v 236 155 146
v 240 162 150
v 245 170 154
v 249 178 158
v 254 186 163
v 259 195 167
v 265 204 172
v 270 213 177
v 276 223 183
v 282 233 188
v 288 243 194
v 294 253 200
v 301 264 207
v 308 275 213
v 314 286 220
v 321 298 227
v 329 310 234
v 336 322 242
v 344 335 250
v 352 348 258
v 360 361 266
v 368 374 275
v 376 388 283
v 385 402 292
v 394 417 302
v 403 431 311
v 412 447 321
v 421 462 331
v 431 477 341
v 440 493 352
v 450 510 363
v 460 526 374
v 471 543 385
v 481 560 396
v 492 578 408
v 503 596 420
v 514 614 432
v 525 632 445
v 536 651 457
v 548 670 470
v 560 689 483
v 572 709 497
v 584 728 510
v 597 749 524
v 609 769 539
v 622 790 553
v 635 811 568
v 648 833 583
l 1 2 3 4 5 6 7 8 9 10 11 12 13 14 15 16 17 18 19 20 21 22 23 24 25 26 27 28 29 30 31 32 33 34 35 36 37 38 39 40 41 42 43 44 45 46 47 48 49 50 51 52 53 54 55 56 57 58 59 60 61 62 63 64
